<?xml version="1.0" encoding="UTF-8"?>
<!DOCTYPE svg PUBLIC "-//W3C//DTD SVG 1.1//EN" "http://www.w3.org/Graphics/SVG/1.1/DTD/svg11.dtd">
<svg xmlns="http://www.w3.org/2000/svg" version="1.1" width="326px" height="326px" style="shape-rendering:geometricPrecision; text-rendering:geometricPrecision; image-rendering:optimizeQuality; fill-rule:evenodd; clip-rule:evenodd" xmlns:xlink="http://www.w3.org/1999/xlink">
<g><path style="opacity:0.426" fill="#f1f7fe" d="M 144.5,-0.5 C 156.5,-0.5 168.5,-0.5 180.5,-0.5C 248.303,9.79789 294.136,47.1312 318,111.5C 321.225,122.477 323.725,133.477 325.5,144.5C 325.5,156.5 325.5,168.5 325.5,180.5C 315.202,248.303 277.869,294.136 213.5,318C 202.523,321.225 191.523,323.725 180.5,325.5C 168.5,325.5 156.5,325.5 144.5,325.5C 76.6972,315.202 30.8638,277.869 7,213.5C 3.77499,202.523 1.27499,191.523 -0.5,180.5C -0.5,168.5 -0.5,156.5 -0.5,144.5C 9.79789,76.6972 47.1312,30.8638 111.5,7C 122.477,3.77499 133.477,1.27499 144.5,-0.5 Z"/></g>
<g><path style="opacity:1" fill="#379bf0" d="M 145.5,0.5 C 213.972,-2.68535 266.472,24.3147 303,81.5C 331.463,135.476 331.463,189.476 303,243.5C 261.593,307.273 203.093,333.106 127.5,321C 69.6403,305.801 30.1403,270.301 9,214.5C -11.0106,145.223 5.48937,86.3901 58.5,38C 83.9756,17.2607 112.976,4.76071 145.5,0.5 Z"/></g>
<g><path style="opacity:1" fill="#f7fafe" d="M 143.5,15.5 C 203.651,10.9082 251.151,32.9082 286,81.5C 314.015,128.532 317.015,177.198 295,227.5C 266.289,280.538 221.622,307.872 161,309.5C 106.818,307.583 65.1514,283.916 36,238.5C 12.4498,196.043 9.11644,152.043 26,106.5C 49.3167,55.6814 88.4834,25.3481 143.5,15.5 Z"/></g>
<g><path style="opacity:1" fill="#349af0" d="M 145.5,21.5 C 206.791,17.2272 253.624,40.8939 286,92.5C 304.423,127.077 308.756,163.41 299,201.5C 282.553,252.28 248.72,285.114 197.5,300C 142.62,311.813 95.787,297.647 57,257.5C 23.7098,218.328 13.3764,173.661 26,123.5C 41.8333,74.3333 74.3333,41.8333 123.5,26C 130.967,24.4603 138.301,22.9603 145.5,21.5 Z"/></g>
<g><path style="opacity:1" fill="#aed7f9" d="M 80.5,131.5 C 75.6946,132.487 70.6946,132.821 65.5,132.5C 65.5,139.167 65.5,145.833 65.5,152.5C 64.5088,145.687 64.1755,138.687 64.5,131.5C 69.8333,131.5 75.1667,131.5 80.5,131.5 Z"/></g>
<g><path style="opacity:1" fill="#fdfefe" d="M 65.5,152.5 C 65.5,145.833 65.5,139.167 65.5,132.5C 70.6946,132.821 75.6946,132.487 80.5,131.5C 80.5,124.833 80.5,118.167 80.5,111.5C 89.187,110.296 97.8537,108.963 106.5,107.5C 106.5,115.833 106.5,124.167 106.5,132.5C 116.167,132.5 125.833,132.5 135.5,132.5C 135.5,139.167 135.5,145.833 135.5,152.5C 125.833,152.5 116.167,152.5 106.5,152.5C 106.039,171.235 106.539,189.902 108,208.5C 110.492,212.66 114.159,214.66 119,214.5C 124.069,213.874 128.902,212.54 133.5,210.5C 135.389,216.668 137.389,222.835 139.5,229C 137.42,232.218 134.42,234.218 130.5,235C 117.673,239.251 105.339,238.251 93.5,232C 85.2006,225.567 81.034,217.067 81,206.5C 80.5001,188.503 80.3334,170.503 80.5,152.5C 75.5,152.5 70.5,152.5 65.5,152.5 Z"/></g>
<g><path style="opacity:1" fill="#fcfdfe" d="M 156.5,90.5 C 165.167,90.5 173.833,90.5 182.5,90.5C 182.5,108.833 182.5,127.167 182.5,145.5C 183.552,145.649 184.552,145.483 185.5,145C 196.714,131.044 211.047,126.711 228.5,132C 240.128,136.056 246.961,144.223 249,156.5C 249.5,182.831 249.667,209.165 249.5,235.5C 240.833,235.5 232.167,235.5 223.5,235.5C 223.667,211.164 223.5,186.831 223,162.5C 219.67,154.915 213.837,151.582 205.5,152.5C 194.109,152.715 186.943,158.382 184,169.5C 182.555,191.455 182.055,213.455 182.5,235.5C 173.833,235.5 165.167,235.5 156.5,235.5C 156.5,187.167 156.5,138.833 156.5,90.5 Z"/></g>
</svg>
